<svg width="21" height="23" viewBox="0 0 21 23" fill="none" xmlns="http://www.w3.org/2000/svg">
<path d="M0.902955 1.89515L14.1008 0.0053345C14.1752 -0.00536723 14.251 7.36509e-05 14.3231 0.0212894C14.3952 0.0425051 14.462 0.079001 14.5188 0.128309C14.5757 0.177618 14.6213 0.238589 14.6526 0.307101C14.6839 0.375612 14.7002 0.450067 14.7003 0.52543V22.4747C14.7002 22.55 14.6839 22.6243 14.6527 22.6928C14.6214 22.7612 14.5759 22.8221 14.5192 22.8714C14.4624 22.9207 14.3958 22.9572 14.3239 22.9785C14.2519 22.9998 14.1762 23.0054 14.1018 22.9948L0.901905 21.105C0.651617 21.0693 0.422596 20.9442 0.25691 20.7527C0.0912248 20.5612 2.42598e-06 20.3162 0 20.0627V2.93745C2.42598e-06 2.68395 0.0912248 2.43895 0.25691 2.24748C0.422596 2.056 0.652667 1.9309 0.902955 1.89515ZM15.7503 2.02465H19.9501C20.2285 2.02465 20.4956 2.13557 20.6925 2.33302C20.8894 2.53046 21 2.79825 21 3.07748V19.9227C21 20.2019 20.8894 20.4697 20.6925 20.6671C20.4956 20.8646 20.2285 20.9755 19.9501 20.9755H15.7503V2.02465ZM8.61062 11.5001L11.5505 7.28878H9.0306L7.35068 9.69553L5.67077 7.28878H3.15089L6.09075 11.5001L3.15089 15.7114H5.67077L7.35068 13.3046L9.0306 15.7114H11.5505L8.61062 11.5001Z" fill="#B4B5B9"/>
</svg>
