<svg width="23" height="23" viewBox="0 0 23 23" fill="none" xmlns="http://www.w3.org/2000/svg">
<path fill-rule="evenodd" clip-rule="evenodd" d="M2.3 1.15C2.3 0.845001 2.17884 0.552494 1.96317 0.336827C1.74751 0.12116 1.455 0 1.15 0C0.845001 0 0.552494 0.12116 0.336827 0.336827C0.12116 0.552494 0 0.845001 0 1.15V20.93C0 21.479 0.218089 22.0055 0.606289 22.3937C0.994489 22.7819 1.521 23 2.07 23H21.85C22.155 23 22.4475 22.8788 22.6632 22.6632C22.8788 22.4475 23 22.155 23 21.85C23 21.545 22.8788 21.2525 22.6632 21.0368C22.4475 20.8212 22.155 20.7 21.85 20.7H2.3V1.15ZM22.663 6.56305C22.8725 6.34616 22.9884 6.05566 22.9858 5.75414C22.9832 5.45261 22.8623 5.16418 22.649 4.95096C22.4358 4.73774 22.1474 4.61679 21.8459 4.61417C21.5443 4.61155 21.2538 4.72747 21.0369 4.93695L13.8 12.1739L10.013 8.38695C9.79739 8.17136 9.50494 8.05025 9.2 8.05025C8.89506 8.05025 8.60261 8.17136 8.38695 8.38695L3.78695 12.9869C3.67711 13.093 3.5895 13.2199 3.52923 13.3602C3.46896 13.5005 3.43724 13.6514 3.43591 13.8041C3.43459 13.9568 3.46368 14.1083 3.5215 14.2496C3.57933 14.3909 3.66472 14.5193 3.7727 14.6273C3.88067 14.7353 4.00907 14.8207 4.1504 14.8785C4.29173 14.9363 4.44317 14.9654 4.59586 14.9641C4.74856 14.9628 4.89946 14.931 5.03976 14.8708C5.18007 14.8105 5.30697 14.7229 5.41305 14.613L9.2 10.8261L12.9869 14.613C13.2026 14.8286 13.4951 14.9498 13.8 14.9498C14.1049 14.9498 14.3974 14.8286 14.613 14.613L22.663 6.56305Z" fill="#B4B5B9"/>
</svg>
