<svg width="42" height="40" viewBox="0 0 42 40" fill="none" xmlns="http://www.w3.org/2000/svg">
<path d="M14.5606 25.6457C4 22.5 36.4696 33.2325 38.9215 25.7209C39.5681 23.727 28.1866 20.9431 28.638 16.4913C29.0405 12.4785 39.0679 11.7762 39.1167 7.97655C39.1533 4.89166 29.8579 3.58748 28.882 3.437C21.7945 2.39616 16.2197 3.437 14.1459 4.25211C10.5838 5.65662 7.79032 7.61289 5.60674 10.6602C2.37407 15.1495 2.36187 21.382 4.39906 26.1348C6.59484 31.2261 10.7546 33.9975 15.0364 35.4145C24.6002 38.5997 45.1795 35.7907 35.1521 36.819" stroke="#5372F1" stroke-width="5" stroke-miterlimit="10"/>
<path d="M23.5282 9.10938C24.0878 9.10938 24.4725 9.31823 24.7236 9.60655C24.9833 9.90483 25.1248 10.3183 25.1248 10.7496C25.1248 11.1809 24.9833 11.5944 24.7236 11.8927C24.4725 12.181 24.0878 12.3899 23.5282 12.3899C22.9687 12.3899 22.5839 12.181 22.3329 11.8927C22.0731 11.5944 21.9316 11.1809 21.9316 10.7496C21.9316 10.3183 22.0731 9.90483 22.3329 9.60655C22.5839 9.31823 22.9687 9.10938 23.5282 9.10938Z" fill="#5372F1" stroke="#5372F1"/>
</svg>
