<svg width="22" height="23" viewBox="0 0 22 23" fill="none" xmlns="http://www.w3.org/2000/svg">
<path d="M19.5 23C20.1875 23 20.7758 22.75 21.265 22.2499C21.7542 21.7499 21.9992 21.1481 22 20.4444V2.55555C22 1.85278 21.755 1.25137 21.265 0.751333C20.775 0.251296 20.1867 0.000851851 19.5 0H12C11.6458 0 11.3487 0.122667 11.1087 0.368C10.8687 0.613333 10.7492 0.916592 10.75 1.27778C10.7508 1.63896 10.8708 1.94265 11.11 2.18883C11.3492 2.43502 11.6458 2.55726 12 2.55555H19.5V20.4444H12C11.6458 20.4444 11.3487 20.5671 11.1087 20.8124C10.8687 21.0578 10.7492 21.361 10.75 21.7222C10.7508 22.0834 10.8708 22.3871 11.11 22.6333C11.3492 22.8794 11.6458 23.0017 12 23H19.5ZM4.28125 12.7778H13.25C13.6042 12.7778 13.9008 12.6551 14.14 12.4098C14.3792 12.1644 14.4992 11.8612 14.5 11.5C14.5008 11.1388 14.3808 10.8355 14.14 10.5902C13.8992 10.3449 13.6025 10.2222 13.25 10.2222H4.28125L6.625 7.82638C6.85417 7.59212 6.96875 7.30462 6.96875 6.96388C6.96875 6.62314 6.85417 6.325 6.625 6.06944C6.39583 5.81388 6.10417 5.68057 5.75 5.6695C5.39583 5.65842 5.09375 5.78109 4.84375 6.0375L0.375 10.6055C0.125 10.8611 0 11.1593 0 11.5C0 11.8407 0.125 12.1389 0.375 12.3944L4.84375 16.9625C5.09375 17.218 5.39042 17.3407 5.73375 17.3305C6.07708 17.3203 6.37417 17.187 6.625 16.9305C6.85417 16.675 6.96333 16.3717 6.9525 16.0208C6.94167 15.6698 6.82208 15.3768 6.59375 15.1417L4.28125 12.7778Z" fill="#ED4E4E"/>
</svg>
