<svg width="53" height="53" viewBox="0 0 53 53" fill="none" xmlns="http://www.w3.org/2000/svg">
<path d="M26.4469 18.9833C26.8662 18.9833 27.2135 19.1092 27.6025 19.4584L35.2307 26.8141C35.5639 27.1463 35.7636 27.5012 35.7636 27.9895C35.7636 28.8981 35.0982 29.5417 34.1669 29.5417C33.7221 29.5417 33.2574 29.3647 32.946 29.0098L29.5758 25.4399L28.0672 23.865L28.2224 27.1699V44.2643C28.2224 45.1966 27.4019 45.9726 26.4479 45.9726C25.4948 45.9726 24.696 45.1966 24.696 44.2643V27.169L24.8285 23.8641L23.3209 25.4389L19.9705 29.0098C19.8195 29.1776 19.6349 29.3118 19.4286 29.4036C19.2223 29.4954 18.9991 29.5428 18.7733 29.5426C17.842 29.5426 17.1549 28.8991 17.1549 27.9895C17.1549 27.5012 17.3319 27.1472 17.6641 26.8141L25.1617 19.5834C25.6055 19.1385 26.004 18.9833 26.4488 18.9833M30.932 3.56885C38.9833 3.56885 45.5099 10.0954 45.5099 18.1457C45.5099 18.6038 45.4891 19.0565 45.4474 19.5039C49.5199 20.4635 52.5513 24.1224 52.5513 28.4874C52.5513 33.5848 48.4192 37.7169 43.3217 37.7169H32.6744V34.1678H43.3198C44.0659 34.1681 44.8047 34.0213 45.494 33.7359C46.1833 33.4506 46.8096 33.0321 47.3371 32.5046C47.8646 31.9771 48.283 31.3508 48.5684 30.6615C48.8538 29.9722 49.0006 29.2334 49.0003 28.4874C49.0001 27.2086 48.5686 25.9672 47.7757 24.964C46.9828 23.9607 45.8748 23.2541 44.6306 22.9583L41.6267 22.2504L41.9106 19.1774C41.9422 18.8366 41.9579 18.4928 41.9579 18.1457C41.9579 12.0555 37.0214 7.11796 30.9301 7.11796C29.0909 7.11659 27.2805 7.57576 25.6642 8.45359C24.0479 9.33141 22.6771 10.6 21.6769 12.1435L20.2336 14.3619L17.6962 13.6123C17.0075 13.4083 16.2813 13.3639 15.5729 13.4826C14.8644 13.6012 14.1923 13.8798 13.6077 14.2971C13.023 14.7145 12.5412 15.2596 12.1988 15.891C11.8563 16.5225 11.6623 17.2237 11.6315 17.9413L11.6277 18.2186L11.7158 21.1999L8.87931 21.8538C7.5067 22.1731 6.28256 22.9476 5.40614 24.0512C4.52973 25.1548 4.05264 26.5226 4.05253 27.9318C4.05253 29.586 4.70963 31.1724 5.87929 32.342C7.04895 33.5117 8.63534 34.1688 10.2895 34.1688H20.3708V37.7179H10.2895C4.88538 37.7179 0.503418 33.3359 0.503418 27.9318C0.503418 23.2867 3.7402 19.3969 8.08147 18.3956L8.07769 18.1457C8.07734 16.8581 8.37747 15.5881 8.95422 14.4369C9.53096 13.2856 10.3684 12.2848 11.3999 11.5141C12.4314 10.7433 13.6286 10.224 14.8961 9.99723C16.1637 9.7705 17.4666 9.84269 18.7013 10.208C21.3012 6.21128 25.8071 3.56885 30.9301 3.56885" fill="#3C4550"/>
</svg>
